<svg id="visual" viewBox="0 0 900 600" width="900" height="600" xmlns="http://www.w3.org/2000/svg" xmlns:xlink="http://www.w3.org/1999/xlink" version="1.1"><rect x="0" y="0" width="900" height="600" fill="#ffffff"></rect><g transform="translate(437.884902177006 290.07637906600803)"><path d="M64.4 -97.5C98.3 -78.3 151 -85.7 178.1 -68.9C205.1 -52.1 206.5 -11.1 194.7 23.6C182.9 58.3 158 86.8 133.9 117.8C109.8 148.8 86.6 182.3 57.9 185.2C29.3 188.1 -4.8 160.2 -28.2 135.4C-51.6 110.5 -64.4 88.7 -88.7 71C-113.1 53.4 -149.1 40 -166.1 15.2C-183.1 -9.5 -181.2 -45.7 -159.9 -65C-138.6 -84.3 -97.9 -86.7 -68.1 -107.8C-38.2 -128.8 -19.1 -168.4 -1.9 -165.4C15.2 -162.3 30.4 -116.7 64.4 -97.5" fill="#0066FF"></path></g></svg>