<svg id="visual" viewBox="0 0 900 900" width="900" height="900" xmlns="http://www.w3.org/2000/svg" xmlns:xlink="http://www.w3.org/1999/xlink" version="1.1"><rect x="0" y="0" width="900" height="900" fill="#ffffff"></rect><g transform="translate(477.10562309573135 444.25254386958954)"><path d="M138.4 -242.7C157.5 -203.1 136.1 -127.7 153.1 -74.6C170.1 -21.4 225.6 9.5 244.8 51.4C264 93.3 246.9 146.2 215.6 192.5C184.3 238.9 138.9 278.7 88.7 286.3C38.4 293.9 -16.7 269.3 -56.2 236.9C-95.8 204.6 -119.7 164.5 -163.4 131.7C-207.1 99 -270.6 73.5 -295.2 30.6C-319.7 -12.3 -305.4 -72.6 -261.1 -98.4C-216.9 -124.1 -142.6 -115.3 -94.1 -141.5C-45.6 -167.7 -22.8 -228.8 18.4 -257.5C59.7 -286.2 119.3 -282.3 138.4 -242.7" fill="#0066FF"></path></g></svg>